<svg width="135" height="40" viewBox="0 0 135 40" fill="none" xmlns="http://www.w3.org/2000/svg">
<rect width="135" height="40" rx="4" fill="#00142A"/>
<path d="M87.5257 19.2009V21.4919H86.0896V22.9944H87.5257V28.0994C87.5257 29.8425 88.3143 30.5398 90.2981 30.5398C90.6468 30.5398 90.9788 30.4983 91.2693 30.4485V28.9626C91.0203 28.9875 90.8626 29.0041 90.5887 29.0041C89.7005 29.0041 89.3104 28.5891 89.3104 27.6428V22.9944H91.2693V21.4919H89.3104V19.2009H87.5257Z" fill="white"/>
<path d="M96.3232 30.6643C98.9628 30.6643 100.581 28.8962 100.581 25.9661C100.581 23.0525 98.9545 21.2761 96.3232 21.2761C93.6835 21.2761 92.0566 23.0525 92.0566 25.9661C92.0566 28.8962 93.6752 30.6643 96.3232 30.6643ZM96.3232 29.0789C94.7709 29.0789 93.8994 27.9416 93.8994 25.9661C93.8994 24.0071 94.7709 22.8616 96.3232 22.8616C97.8671 22.8616 98.747 24.0071 98.747 25.9661C98.747 27.9333 97.8671 29.0789 96.3232 29.0789Z" fill="white"/>
<path d="M101.966 30.49H103.751V25.1526C103.751 23.8826 104.706 23.0276 106.059 23.0276C106.374 23.0276 106.905 23.0857 107.055 23.1355V21.3757C106.864 21.3259 106.524 21.301 106.258 21.301C105.079 21.301 104.075 21.9485 103.817 22.8367H103.685V21.4504H101.966V30.49Z" fill="white"/>
<path d="M111.486 22.7952C112.806 22.7952 113.669 23.7165 113.711 25.136H109.145C109.245 23.7248 110.166 22.7952 111.486 22.7952ZM113.702 28.0496C113.37 28.7551 112.632 29.1453 111.552 29.1453C110.125 29.1453 109.203 28.1409 109.145 26.5554V26.4558H115.529V25.8332C115.529 22.9944 114.009 21.2761 111.494 21.2761C108.946 21.2761 107.327 23.1106 107.327 25.9993C107.327 28.8879 108.913 30.6643 111.503 30.6643C113.57 30.6643 115.014 29.6682 115.421 28.0496H113.702Z" fill="white"/>
<path d="M75.8221 27.1518C75.9598 29.3715 77.8095 30.7911 80.5626 30.7911C83.505 30.7911 85.3462 29.3027 85.3462 26.9281C85.3462 25.0612 84.2966 24.0287 81.7499 23.4351L80.382 23.0996C78.7645 22.721 78.1106 22.2134 78.1106 21.3272C78.1106 20.2088 79.1259 19.4775 80.6487 19.4775C82.0941 19.4775 83.0921 20.1916 83.2727 21.3358H85.1483C85.0365 19.2452 83.1953 17.774 80.6745 17.774C77.9644 17.774 76.1576 19.2452 76.1576 21.4563C76.1576 23.2802 77.1815 24.3643 79.427 24.8891L81.0272 25.2763C82.6705 25.6634 83.3932 26.2312 83.3932 27.1776C83.3932 28.2789 82.2575 29.079 80.7089 29.079C79.0484 29.079 77.8955 28.3305 77.7321 27.1518H75.8221Z" fill="white"/>
<path d="M57.3348 21.301C56.1063 21.301 55.0437 21.9153 54.4959 22.9446H54.3631V21.4504H52.6448V33.4949H54.4295V29.1204H54.5706C55.0437 30.0749 56.0647 30.6394 57.3514 30.6394C59.6341 30.6394 61.0867 28.8381 61.0867 25.9661C61.0867 23.094 59.6341 21.301 57.3348 21.301ZM56.8284 29.0373C55.3343 29.0373 54.3963 27.8586 54.3963 25.9744C54.3963 24.0818 55.3343 22.9031 56.8367 22.9031C58.3475 22.9031 59.2522 24.0569 59.2522 25.9661C59.2522 27.8835 58.3475 29.0373 56.8284 29.0373Z" fill="white"/>
<path d="M67.3316 21.301C66.103 21.301 65.0405 21.9153 64.4927 22.9446H64.3599V21.4504H62.6416V33.4949H64.4263V29.1204H64.5674C65.0405 30.0749 66.0615 30.6394 67.3482 30.6394C69.6309 30.6394 71.0835 28.8381 71.0835 25.9661C71.0835 23.094 69.6309 21.301 67.3316 21.301ZM66.8252 29.0373C65.3311 29.0373 64.3931 27.8586 64.3931 25.9744C64.3931 24.0818 65.3311 22.9031 66.8335 22.9031C68.3443 22.9031 69.249 24.0569 69.249 25.9661C69.249 27.8835 68.3443 29.0373 66.8252 29.0373Z" fill="white"/>
<path d="M49.4428 30.49H51.4905L47.008 18.0751H44.9346L40.4521 30.49H42.431L43.5752 27.1948H48.3072L49.4428 30.49ZM45.8724 20.3292H46.0186L47.8168 25.5774H44.0656L45.8724 20.3292Z" fill="white"/>
<path d="M41.6514 8.71094V14.7H43.8137C45.5984 14.7 46.6318 13.6001 46.6318 11.6868C46.6318 9.80249 45.5901 8.71094 43.8137 8.71094H41.6514ZM42.5811 9.55762H43.71C44.9509 9.55762 45.6855 10.3462 45.6855 11.6992C45.6855 13.073 44.9634 13.8533 43.71 13.8533H42.5811V9.55762Z" fill="white"/>
<path d="M49.7969 14.7871C51.1167 14.7871 51.9261 13.9031 51.9261 12.438C51.9261 10.9812 51.1126 10.093 49.7969 10.093C48.4771 10.093 47.6636 10.9812 47.6636 12.438C47.6636 13.9031 48.4729 14.7871 49.7969 14.7871ZM49.7969 13.9944C49.0208 13.9944 48.585 13.4258 48.585 12.438C48.585 11.4585 49.0208 10.8857 49.7969 10.8857C50.5689 10.8857 51.0088 11.4585 51.0088 12.438C51.0088 13.4216 50.5689 13.9944 49.7969 13.9944Z" fill="white"/>
<path d="M58.8182 10.1802H57.9259L57.1207 13.6292H57.0501L56.1205 10.1802H55.2655L54.3358 13.6292H54.2694L53.4601 10.1802H52.5553L53.8004 14.7H54.7176L55.6473 11.3713H55.7179L56.6517 14.7H57.5772L58.8182 10.1802Z" fill="white"/>
<path d="M59.8458 14.7H60.7382V12.0562C60.7382 11.3506 61.1574 10.9106 61.8173 10.9106C62.4772 10.9106 62.7926 11.2717 62.7926 11.998V14.7H63.685V11.7739C63.685 10.699 63.1288 10.093 62.1203 10.093C61.4396 10.093 60.9914 10.396 60.7714 10.8982H60.705V10.1802H59.8458V14.7Z" fill="white"/>
<path d="M65.0903 14.7H65.9826V8.41626H65.0903V14.7Z" fill="white"/>
<path d="M69.3386 14.7871C70.6584 14.7871 71.4678 13.9031 71.4678 12.438C71.4678 10.9812 70.6543 10.093 69.3386 10.093C68.0188 10.093 67.2053 10.9812 67.2053 12.438C67.2053 13.9031 68.0146 14.7871 69.3386 14.7871ZM69.3386 13.9944C68.5625 13.9944 68.1267 13.4258 68.1267 12.438C68.1267 11.4585 68.5625 10.8857 69.3386 10.8857C70.1106 10.8857 70.5505 11.4585 70.5505 12.438C70.5505 13.4216 70.1106 13.9944 69.3386 13.9944Z" fill="white"/>
<path d="M74.1265 14.0234C73.6409 14.0234 73.2881 13.7869 73.2881 13.3801C73.2881 12.9817 73.5704 12.77 74.1929 12.7285L75.2969 12.658V13.0356C75.2969 13.5959 74.7989 14.0234 74.1265 14.0234ZM73.8982 14.7747C74.4917 14.7747 74.9856 14.5173 75.2554 14.0649H75.326V14.7H76.1851V11.6121C76.1851 10.6575 75.5459 10.093 74.4129 10.093C73.3877 10.093 72.6573 10.5911 72.566 11.3672H73.4292C73.5289 11.0476 73.8733 10.865 74.3714 10.865C74.9815 10.865 75.2969 11.1348 75.2969 11.6121V12.0022L74.0726 12.0728C72.9976 12.1392 72.3916 12.6082 72.3916 13.4216C72.3916 14.2476 73.0267 14.7747 73.8982 14.7747Z" fill="white"/>
<path d="M79.2132 14.7747C79.8358 14.7747 80.3629 14.48 80.6327 13.9861H80.7032V14.7H81.5582V8.41626H80.6659V10.8982H80.5995C80.3546 10.4001 79.8316 10.1055 79.2132 10.1055C78.0719 10.1055 77.3373 11.0103 77.3373 12.438C77.3373 13.8699 78.0636 14.7747 79.2132 14.7747ZM79.4664 10.9065C80.2135 10.9065 80.6825 11.5 80.6825 12.4421C80.6825 13.3884 80.2176 13.9736 79.4664 13.9736C78.711 13.9736 78.2586 13.3967 78.2586 12.438C78.2586 11.4875 78.7152 10.9065 79.4664 10.9065Z" fill="white"/>
<path d="M87.3447 14.7871C88.6645 14.7871 89.4738 13.9031 89.4738 12.438C89.4738 10.9812 88.6604 10.093 87.3447 10.093C86.0249 10.093 85.2114 10.9812 85.2114 12.438C85.2114 13.9031 86.0207 14.7871 87.3447 14.7871ZM87.3447 13.9944C86.5686 13.9944 86.1328 13.4258 86.1328 12.438C86.1328 11.4585 86.5686 10.8857 87.3447 10.8857C88.1166 10.8857 88.5566 11.4585 88.5566 12.438C88.5566 13.4216 88.1166 13.9944 87.3447 13.9944Z" fill="white"/>
<path d="M90.655 14.7H91.5474V12.0562C91.5474 11.3506 91.9666 10.9106 92.6265 10.9106C93.2864 10.9106 93.6018 11.2717 93.6018 11.998V14.7H94.4941V11.7739C94.4941 10.699 93.938 10.093 92.9294 10.093C92.2488 10.093 91.8005 10.396 91.5806 10.8982H91.5142V10.1802H90.655V14.7Z" fill="white"/>
<path d="M98.6039 9.05542V10.2009H97.8858V10.9521H98.6039V13.5046C98.6039 14.3762 98.9981 14.7249 99.9901 14.7249C100.164 14.7249 100.33 14.7041 100.476 14.6792V13.9363C100.351 13.9487 100.272 13.957 100.135 13.957C99.6913 13.957 99.4962 13.7495 99.4962 13.2764V10.9521H100.476V10.2009H99.4962V9.05542H98.6039Z" fill="white"/>
<path d="M101.673 14.7H102.566V12.0603C102.566 11.3755 102.973 10.9148 103.703 10.9148C104.334 10.9148 104.67 11.28 104.67 12.0022V14.7H105.562V11.7822C105.562 10.7073 104.969 10.0972 104.006 10.0972C103.325 10.0972 102.848 10.4001 102.628 10.9065H102.558V8.41626H101.673V14.7Z" fill="white"/>
<path d="M108.781 10.8525C109.441 10.8525 109.873 11.3132 109.894 12.0229H107.611C107.661 11.3174 108.122 10.8525 108.781 10.8525ZM109.89 13.4797C109.724 13.8325 109.354 14.0276 108.815 14.0276C108.101 14.0276 107.64 13.5254 107.611 12.7327V12.6829H110.803V12.3716C110.803 10.9521 110.043 10.093 108.786 10.093C107.511 10.093 106.702 11.0103 106.702 12.4546C106.702 13.8989 107.495 14.7871 108.79 14.7871C109.823 14.7871 110.545 14.2891 110.749 13.4797H109.89Z" fill="white"/>
<path d="M26.7973 20.3008C26.819 18.6198 27.7217 17.0292 29.1539 16.1488C28.2504 14.8584 26.7371 14.0403 25.1627 13.9911C23.4835 13.8148 21.8555 14.9959 20.9998 14.9959C20.1275 14.9959 18.81 14.0086 17.3913 14.0378C15.5421 14.0975 13.8181 15.1489 12.9184 16.7656C10.9844 20.1141 12.427 25.0351 14.2796 27.7417C15.2065 29.0671 16.2898 30.5475 17.7072 30.495C19.0943 30.4375 19.6123 29.6105 21.2866 29.6105C22.9454 29.6105 23.4314 30.495 24.8776 30.4616C26.366 30.4375 27.3038 29.1304 28.1981 27.7925C28.8641 26.8481 29.3766 25.8044 29.7166 24.7C27.9674 23.9602 26.7994 22.2 26.7973 20.3008Z" fill="white"/>
<path d="M24.0656 12.2111C24.8772 11.2369 25.277 9.98469 25.1802 8.72046C23.9403 8.85068 22.7951 9.44324 21.9726 10.3801C21.1683 11.2954 20.7497 12.5255 20.8289 13.7415C22.0692 13.7542 23.2885 13.1777 24.0656 12.2111Z" fill="white"/>
</svg>
